<!--?xml version="1.0" standalone="no"?-->
              <svg id="sw-js-blob-svg" viewBox="0 0 100 100" xmlns="http://www.w3.org/2000/svg" version="1.1">
                    <defs> 
                        <linearGradient id="sw-gradient" x1="0" x2="1" y1="1" y2="0">
                            <stop id="stop1" stop-color="rgba(119, 67, 219, 1)" offset="0%"></stop>
                            <stop id="stop2" stop-color="rgba(255, 177, 0, 1)" offset="100%"></stop>
                        </linearGradient>
                    </defs>
                <path fill="url(#sw-gradient)" d="M16.5,-22.1C20.3,-16.5,21.4,-10.3,23.9,-3.2C26.3,3.9,30.1,11.7,28.4,18.1C26.7,24.4,19.5,29.2,11.2,33.2C2.9,37.3,-6.6,40.6,-14.8,38.5C-22.9,36.4,-29.9,28.8,-34.9,20.2C-39.8,11.5,-42.9,1.7,-39.1,-4.7C-35.4,-11.1,-24.8,-14.1,-17.2,-18.9C-9.5,-23.8,-4.8,-30.6,0.8,-31.5C6.4,-32.5,12.8,-27.7,16.5,-22.1Z" width="100%" height="100%" transform="translate(50 50)" stroke-width="0" style="transition: all 0.3s ease 0s;" stroke="url(#sw-gradient)"></path>
              </svg>