<!--?xml version="1.0" standalone="no"?-->
              <svg id="sw-js-blob-svg" viewBox="0 0 100 100" xmlns="http://www.w3.org/2000/svg" version="1.1">
                    <defs> 
                        <linearGradient id="sw-gradient" x1="0" x2="1" y1="1" y2="0">
                            <stop id="stop1" stop-color="rgba(119, 67, 219, 1)" offset="0%"></stop>
                            <stop id="stop2" stop-color="rgba(255, 177, 0, 1)" offset="100%"></stop>
                        </linearGradient>
                    </defs>
                <path fill="url(#sw-gradient)" d="M20.1,-21.1C26.6,-18.5,32.8,-12.7,34,-6C35.1,0.7,31.3,8.3,27.2,16.1C23.1,23.9,18.8,31.9,12.8,33.2C6.8,34.6,-1,29.2,-10.6,26.7C-20.2,24.2,-31.7,24.6,-35.8,19.6C-39.9,14.7,-36.6,4.4,-32.1,-2.9C-27.5,-10.2,-21.6,-14.5,-16.1,-17.2C-10.5,-19.9,-5.3,-21.1,0.8,-22C6.8,-22.9,13.6,-23.7,20.1,-21.1Z" width="100%" height="100%" transform="translate(50 50)" stroke-width="0" style="transition: all 0.3s ease 0s;" stroke="url(#sw-gradient)"></path>
              </svg>